<svg width="70" height="62" viewBox="0 0 70 62" fill="none" xmlns="http://www.w3.org/2000/svg">
<g clip-path="url(#clip0_9_85)">
<path d="M65.0193 31.3153V27.1035V21.7875C65.0193 19.5119 64.0983 17.4453 62.6153 15.9461C61.1323 14.4489 59.0834 13.5172 56.8294 13.5172H8.18983C5.93587 13.5172 3.88889 14.447 2.40397 15.9461C0.920953 17.4434 0 19.51 0 21.7855V53.7316C0 56.0072 0.920953 58.0738 2.40587 59.5729C3.88889 61.0721 5.93777 62.0019 8.19173 62.0019H56.8313C59.0853 62.0019 61.1323 61.0721 62.6172 59.5729C64.1002 58.0757 65.0212 56.0072 65.0212 53.7316V47.2097V44.2019H52.8095C51.1708 44.2019 49.8321 42.8484 49.8321 41.1959V34.3232C49.8321 32.6688 51.1727 31.3172 52.8095 31.3172H65.0193V31.3153Z" fill="#A30022"/>
<path fill-rule="evenodd" clip-rule="evenodd" d="M0 17.3821V17.0658C0 14.6982 0.890571 12.5875 2.53879 10.9235C4.23069 9.21536 6.53971 8.18398 8.87153 7.75072L49.9574 0.12461C50.3847 0.0440926 50.8214 0 51.2562 0C53.3602 0 55.2742 0.939365 56.744 2.43085C58.1396 3.84948 59.0986 5.74163 59.4575 7.70663C59.5619 8.27791 59.6189 8.85879 59.6189 9.43966V12.8482C58.7264 12.5626 57.7884 12.415 56.8313 12.415H55.2439V9.43966C55.2439 9.12526 55.2173 8.81278 55.1603 8.50413C54.9609 7.40756 54.4236 6.334 53.645 5.54225C53.0089 4.8962 52.1772 4.41885 51.2562 4.41885C51.0853 4.41885 50.9144 4.43227 50.7454 4.46294L9.66146 12.0871C6.67453 12.6412 3.98383 12.7888 1.63303 15.164C0.97602 15.8254 0.429145 16.575 0 17.3821Z" fill="#A30022"/>
<path fill-rule="evenodd" clip-rule="evenodd" d="M52.8095 32.4196H68.1163C69.1531 32.4196 70 33.2765 70 34.3213V41.194C70 42.2407 69.1512 43.0957 68.1163 43.0957H52.8095C51.7727 43.0957 50.9258 42.2388 50.9258 41.194V34.3213C50.9239 33.2765 51.7727 32.4196 52.8095 32.4196ZM63.9084 36.0332C62.9647 36.0332 62.1994 36.8058 62.1994 37.7586C62.1994 38.7114 62.9647 39.484 63.9084 39.484C64.8522 39.484 65.6174 38.7114 65.6174 37.7586C65.6193 36.8058 64.8541 36.0332 63.9084 36.0332Z" fill="#A30022"/>
</g>
<defs>
<clipPath id="clip0_9_85">
<rect width="70" height="62" fill="white"/>
</clipPath>
</defs>
</svg>
