<svg width="70" height="66" viewBox="0 0 70 66" fill="none" xmlns="http://www.w3.org/2000/svg">
<path d="M34.5825 65.8597C53.689 65.8597 69.165 51.113 69.165 32.9298C69.165 14.7467 53.689 0 34.5825 0C15.476 0 0 14.7467 0 32.9298C0 51.113 15.4893 65.8597 34.5825 65.8597Z" fill="#A30022"/>
<path d="M54.0335 27.018C52.1255 25.3327 49.4755 22.7652 47.329 20.9482L47.1965 20.8692C46.9845 20.7112 46.746 20.5795 46.4942 20.4874C41.3002 19.5657 17.1322 15.2602 16.6685 15.3129C16.536 15.326 16.4035 15.3787 16.2975 15.4445L16.1782 15.5367C16.0325 15.6815 15.9132 15.8527 15.847 16.0502L15.8205 16.1292V16.5637V16.6295C18.5367 23.8449 29.2825 47.4659 31.4025 53.0222C31.535 53.404 31.7735 54.115 32.224 54.1545H32.33C32.5685 54.1545 33.602 52.851 33.602 52.851C33.602 52.851 52.0592 31.5474 53.9275 29.2827C54.166 29.0062 54.378 28.7034 54.5635 28.3874C54.6165 28.1372 54.59 27.887 54.4972 27.65C54.4045 27.413 54.2322 27.1892 54.0335 27.018ZM38.319 29.5065L46.1895 23.2919L50.8137 27.3472L38.319 29.5065ZM35.2582 29.0984L21.7035 18.5124L43.6455 22.3702L35.2582 29.0984ZM36.4772 31.8634L50.35 29.7304L34.4897 47.9399L36.4772 31.8634ZM19.8617 19.5789L34.132 31.0997L32.065 47.953L19.8617 19.5789Z" fill="white"/>
</svg>
