<svg width="66" height="66" viewBox="0 0 66 66" fill="none" xmlns="http://www.w3.org/2000/svg">
<path d="M39.6918 53.7536L52.0874 41.3571L49.0119 38.3169L41.8504 45.4423V29.2167H37.5323V45.4423L30.4636 38.3521L27.3881 41.4499L39.6918 53.7536ZM23.528 36.0912H27.8461V19.8433L34.9716 26.8991L38.0127 23.858L25.6867 11.5544L13.3125 23.9508L16.3889 26.9911L23.528 19.8433V36.0912ZM32.66 65.308C28.1669 65.308 23.9371 64.4509 19.9705 62.7369C16.0039 61.0228 12.5411 58.6872 9.58222 55.73C6.62389 52.7723 4.28712 49.3109 2.57193 45.3461C0.85731 41.3812 0 37.1525 0 32.66C0 28.1434 0.857024 23.8981 2.57107 19.9241C4.28512 15.95 6.62074 12.4933 9.57793 9.55387C12.5357 6.61444 15.997 4.28712 19.9619 2.57193C23.9268 0.85731 28.1555 0 32.648 0C37.1645 0 41.4098 0.857022 45.3839 2.57107C49.3579 4.28512 52.8147 6.61129 55.7541 9.54957C58.6935 12.4879 61.0208 15.9432 62.736 19.9155C64.4506 23.8878 65.308 28.132 65.308 32.648C65.308 37.141 64.4509 41.3709 62.7369 45.3375C61.0228 49.3041 58.6967 52.7668 55.7584 55.7257C52.8201 58.6841 49.3648 61.0208 45.3925 62.736C41.4201 64.4506 37.176 65.308 32.66 65.308Z" fill="#A30022"/>
</svg>
