<svg width="270" height="42" viewBox="0 0 270 42" fill="none" xmlns="http://www.w3.org/2000/svg">
<path d="M269.5 39.988L252.18 39.9351L260.886 24.9616L269.5 39.988ZM0.156669 38.7476C2.77199 36.9696 5.65145 35.1508 8.77843 33.3188L10.2949 35.9073C7.22155 37.7079 4.39918 39.4909 1.84333 41.2285L0.156669 38.7476ZM26.8161 23.9846C32.62 21.3246 38.9092 18.7357 45.6319 16.3077L46.651 19.1293C40.0065 21.5291 33.7943 24.0864 28.066 26.7118L26.8161 23.9846ZM64.9851 10.1565C71.3028 8.41194 77.8979 6.84053 84.739 5.49675L85.3172 8.4405C78.5523 9.76933 72.0307 11.3232 65.7836 13.0483L64.9851 10.1565ZM104.791 2.33988C111.371 1.55856 118.128 1.00539 125.039 0.720707L125.162 3.71817C118.331 3.99958 111.651 4.54643 105.145 5.31895L104.791 2.33988ZM145.352 0.679111C151.996 0.927155 158.752 1.43796 165.602 2.24345L165.252 5.22292C158.483 4.42698 151.807 3.92216 145.24 3.67702L145.352 0.679111ZM185.658 5.42331C192.174 6.72704 198.755 8.31161 205.386 10.2025L204.564 13.0876C198.011 11.219 191.508 9.65321 185.07 8.365L185.658 5.42331ZM224.665 16.5381C230.879 18.8561 237.125 21.4574 243.389 24.3623L242.127 27.0839C235.933 24.2117 229.759 21.64 223.616 19.3489L224.665 16.5381Z" fill="#A30022"/>
</svg>
