<svg width="270" height="41" viewBox="0 0 270 41" fill="none" xmlns="http://www.w3.org/2000/svg">
<path d="M270 1.5L252.68 1.55298L261.386 16.5264L270 1.5ZM0.656669 2.74048C3.27199 4.51849 6.15145 6.33723 9.27843 8.1692L10.7949 5.58071C7.72155 3.78016 4.89918 1.99709 2.34333 0.259519L0.656669 2.74048ZM27.3161 17.5035C33.12 20.1635 39.4092 22.7523 46.1319 25.1803L47.151 22.3587C40.5065 19.959 34.2943 17.4016 28.566 14.7763L27.3161 17.5035ZM65.4851 31.3316C71.8028 33.0761 78.3979 34.6475 85.239 35.9913L85.8172 33.0475C79.0523 31.7187 72.5307 30.1648 66.2836 28.4398L65.4851 31.3316ZM105.291 39.1482C111.871 39.9295 118.628 40.4826 125.539 40.7673L125.662 37.7699C118.831 37.4885 112.151 36.9416 105.645 36.1691L105.291 39.1482ZM145.852 40.8089C152.496 40.5609 159.252 40.0501 166.102 39.2446L165.752 36.2651C158.983 37.0611 152.307 37.5659 145.74 37.811L145.852 40.8089ZM186.158 36.0647C192.674 34.761 199.255 33.1764 205.886 31.2855L205.064 28.4005C198.511 30.2691 192.008 31.8348 185.57 33.123L186.158 36.0647ZM225.165 24.95C231.379 22.632 237.625 20.0306 243.889 17.1257L242.627 14.4041C236.433 17.2764 230.259 19.848 224.116 22.1391L225.165 24.95Z" fill="#A30022"/>
</svg>
